<svg xmlns="http://www.w3.org/2000/svg" xmlns:xlink="http://www.w3.org/1999/xlink" viewBox="0 0 216 173.95"><defs><style>.cls-1{isolation:isolate;}.cls-2{fill:url(#radial-gradient);}.cls-3{fill:url(#radial-gradient-2);}.cls-4{mix-blend-mode:soft-light;}.cls-5{fill:url(#linear-gradient);}.cls-6{fill:url(#linear-gradient-2);}.cls-7{fill:#fff;mix-blend-mode:overlay;opacity:0.3;}.cls-8{fill:url(#linear-gradient-3);}</style><radialGradient id="radial-gradient" cx="94.85" cy="107.39" r="81.9" gradientUnits="userSpaceOnUse"><stop offset="0" stop-color="#fad03e"/><stop offset="0.52" stop-color="#dc7a30"/><stop offset="1" stop-color="#c92128"/></radialGradient><radialGradient id="radial-gradient-2" cx="121.15" cy="107.43" r="81.92" gradientUnits="userSpaceOnUse"><stop offset="0" stop-color="#00b3f0"/><stop offset="1" stop-color="#0065b1"/></radialGradient><linearGradient id="linear-gradient" x1="36.18" y1="107.43" x2="212.45" y2="107.43" gradientUnits="userSpaceOnUse"><stop offset="0" stop-color="#fff"/><stop offset="0.1" stop-color="#fff" stop-opacity="0.98"/><stop offset="0.23" stop-color="#fff" stop-opacity="0.92"/><stop offset="0.36" stop-color="#fff" stop-opacity="0.83"/><stop offset="0.5" stop-color="#fff" stop-opacity="0.69"/><stop offset="0.65" stop-color="#fff" stop-opacity="0.52"/><stop offset="0.81" stop-color="#fff" stop-opacity="0.31"/><stop offset="0.96" stop-color="#fff" stop-opacity="0.06"/><stop offset="1" stop-color="#fff" stop-opacity="0"/></linearGradient><linearGradient id="linear-gradient-2" x1="135.91" y1="13.41" x2="162.73" y2="13.41" gradientUnits="userSpaceOnUse"><stop offset="0" stop-color="#fad03e"/><stop offset="0.12" stop-color="#f7c53d"/><stop offset="0.32" stop-color="#eea639"/><stop offset="0.6" stop-color="#e17533"/><stop offset="0.92" stop-color="#ce322a"/><stop offset="1" stop-color="#c92128"/></linearGradient><linearGradient id="linear-gradient-3" x1="53.27" y1="13.41" x2="72.46" y2="13.41" gradientUnits="userSpaceOnUse"><stop offset="0" stop-color="#00b3f0"/><stop offset="0.21" stop-color="#00a9e8"/><stop offset="0.57" stop-color="#008ed2"/><stop offset="1" stop-color="#0065b1"/></linearGradient></defs><g class="cls-1"><g id="Layer_2" data-name="Layer 2"><g id="Layer_1-2" data-name="Layer 1"><path class="cls-2" d="M189.69,81.46s-44.32-47.42-90.87,44c-10.53,20.69-44,55-76.4,47.26s-28.48-55,3.89-91.28c0,0-29.14,68,27.84,27.84S148.9-5.94,189.69,81.46Z"/><path class="cls-3" d="M26.31,81.46s39.29-44.68,90.87,44c13.75,23.64,44,55,76.4,47.26s28.48-55-3.89-91.28c0,0,29.14,68-27.84,27.84S67.09-5.94,26.31,81.46Z"/><g class="cls-4"><path class="cls-5" d="M183.38,170.35c-24.83,0-49.57-23.44-63.09-46.68-22-37.86-44.8-57.06-67.71-57.06a39.25,39.25,0,0,0-16.4,3.59c10-17.26,20.35-25.7,31.38-25.7,15.91,0,33.35,16.2,53.54,35,12.14,11.27,24.69,22.94,38.68,32.79,12.74,9,22.22,13.34,29,13.34,5.27,0,8.1-2.61,9.55-4.8,3.14-4.77,2.82-12.46,1.33-19.94,11.12,18.26,15.53,37.51,11.13,51.61-2.8,8.94-8.87,14.59-18,16.79A39.87,39.87,0,0,1,183.38,170.35Z"/></g><path class="cls-6" d="M135.91,13.41A13.41,13.41,0,1,0,149.32,0,13.41,13.41,0,0,0,135.91,13.41Z"/><path class="cls-7" d="M135.91,13.41a13.41,13.41,0,1,1,26.82,0s0,5-9.37,8.42C143.41,25.41,135.91,13.41,135.91,13.41Z"/><path class="cls-8" d="M80.09,13.41A13.41,13.41,0,1,1,66.68,0,13.41,13.41,0,0,1,80.09,13.41Z"/><path class="cls-7" d="M53.27,13.41a13.41,13.41,0,1,1,26.82,0s0,5-9.36,8.42C60.78,25.41,53.27,13.41,53.27,13.41Z"/></g></g></g></svg>